<svg width="47" height="46" viewBox="0 0 47 46" fill="none" xmlns="http://www.w3.org/2000/svg">
<path d="M11.4747 16.771C10.968 17.4995 10.3366 18.1343 9.61133 18.6453L15.4034 24.3672C15.6497 23.4447 16.0563 22.587 16.5917 21.826L11.4747 16.771Z" fill="white"/>
<path d="M5.27519 17.4581C8.02895 17.4581 10.2613 15.2257 10.2613 12.472C10.2613 9.71821 8.02895 7.48584 5.27519 7.48584C2.52143 7.48584 0.289062 9.71821 0.289062 12.472C0.289062 15.2257 2.52143 17.4581 5.27519 17.4581Z" fill="white"/>
<path d="M34.2122 16.6929L29.3262 21.282C29.906 21.9733 30.3719 22.7632 30.6946 23.6227L36.053 18.5899C35.3345 18.0699 34.7098 17.4281 34.2122 16.6929Z" fill="white"/>
<path d="M45.0889 14.3802C46.1436 11.8357 44.9359 8.91798 42.3914 7.86329C39.8469 6.8086 36.9292 8.01631 35.8745 10.5608C34.8198 13.1053 36.0275 16.023 38.572 17.0777C41.1165 18.1323 44.0342 16.9246 45.0889 14.3802Z" fill="white"/>
<path d="M10.8134 39.0843C10.3132 39.1952 9.79414 39.2555 9.26093 39.2555C6.90662 39.2555 4.81402 38.1144 3.50641 36.3564C1.54231 37.9841 0.289062 40.441 0.289062 43.1852V45.5947H10.1922V43.0521C10.1922 41.6686 10.4106 40.3355 10.8134 39.0843Z" fill="white"/>
<path d="M9.26172 36.6929C11.8052 36.6929 13.8672 34.6309 13.8672 32.0874C13.8672 29.5439 11.8052 27.4819 9.26172 27.4819C6.71819 27.4819 4.65625 29.5439 4.65625 32.0874C4.65625 34.6309 6.71819 36.6929 9.26172 36.6929Z" fill="white"/>
<path d="M37.0206 39.256C36.5093 39.256 36.0106 39.2013 35.5293 39.0989C35.9291 40.3461 36.1459 41.6743 36.1459 43.0526V45.5951H45.5412V43.1857C45.5412 40.5692 44.4017 38.2142 42.5934 36.5898C41.2781 38.2146 39.2692 39.256 37.0206 39.256Z" fill="white"/>
<path d="M18.2871 8.19455L20.2627 9.95016C20.9287 9.20069 21.8822 8.7708 22.8787 8.7708C23.8752 8.7708 24.8287 9.2006 25.4946 9.95016L27.4703 8.19455C26.3032 6.88121 24.6296 6.12793 22.8788 6.12793C21.128 6.12793 19.4542 6.88121 18.2871 8.19455Z" fill="white"/>
<path d="M22.88 3.01942C25.5104 3.01942 28.0255 4.15212 29.7805 6.12701L31.7562 4.3714C29.5001 1.83264 26.2649 0.376465 22.8801 0.376465C19.4952 0.376465 16.2599 1.83255 14.0039 4.3714L15.9795 6.12701C17.7343 4.15212 20.2496 3.01942 22.88 3.01942Z" fill="white"/>
<path d="M27.1358 33.4244C25.9648 34.0919 24.6109 34.4737 23.1693 34.4737C21.7277 34.4737 20.3738 34.0918 19.2028 33.4243C15.4227 34.9874 12.7559 38.714 12.7559 43.0521V45.5946H33.5828V43.0521C33.5827 38.714 30.9159 34.9875 27.1358 33.4244Z" fill="white"/>
<path d="M27.0329 30.307C29.1698 28.1702 29.1698 24.7058 27.0329 22.5689C24.8961 20.4321 21.4316 20.4321 19.2948 22.5689C17.158 24.7058 17.158 28.1702 19.2948 30.307C21.4317 32.4439 24.8961 32.4439 27.0329 30.307Z" fill="white"/>
<path d="M37.0195 36.6929C39.5631 36.6929 41.625 34.6309 41.625 32.0874C41.625 29.5439 39.5631 27.4819 37.0195 27.4819C34.476 27.4819 32.4141 29.5439 32.4141 32.0874C32.4141 34.6309 34.476 36.6929 37.0195 36.6929Z" fill="white"/>
</svg>
