<svg width="40" height="40" viewBox="0 0 40 40" fill="none" xmlns="http://www.w3.org/2000/svg">
<path d="M5.58197 29.5156C2.50397 29.5156 0 32.0199 0 35.0979V38.1097C0 38.757 0.524597 39.2816 1.17188 39.2816H9.99207C10.6393 39.2816 11.1639 38.757 11.1639 38.1097V35.0979C11.1639 32.0199 8.65997 29.5156 5.58197 29.5156Z" fill="white"/>
<path d="M5.58289 28.7803C7.7298 28.7803 9.47632 27.0338 9.47632 24.8869C9.47632 22.74 7.7298 20.9932 5.58289 20.9932C3.43597 20.9932 1.68945 22.74 1.68945 24.8869C1.68945 27.0338 3.43597 28.7803 5.58289 28.7803Z" fill="white"/>
<path d="M19.9999 29.5156C16.9219 29.5156 14.418 32.0199 14.418 35.0976V38.1097C14.418 38.757 14.9426 39.2816 15.5898 39.2816H24.41C25.0573 39.2816 25.5819 38.757 25.5819 38.1097V35.0979C25.5819 32.0199 23.0779 29.5156 19.9999 29.5156Z" fill="white"/>
<path d="M16.1074 24.8869C16.1074 27.0338 17.8539 28.7803 20.0009 28.7803C22.1478 28.7803 23.8943 27.0338 23.8943 24.8869C23.8943 22.74 22.1478 20.9932 20.0009 20.9932C17.8539 20.9932 16.1074 22.74 16.1074 24.8869Z" fill="white"/>
<path d="M34.4179 29.5156C31.3399 29.5156 28.8359 32.0199 28.8359 35.0976V38.1097C28.8359 38.757 29.3605 39.2816 30.0078 39.2816H38.828C39.4753 39.2816 39.9999 38.757 39.9999 38.1097V35.0979C39.9999 32.0199 37.4959 29.5156 34.4179 29.5156Z" fill="white"/>
<path d="M30.5254 24.8869C30.5254 27.0338 32.2719 28.7803 34.4188 28.7803C36.5657 28.7803 38.3123 27.0338 38.3123 24.8869C38.3123 22.74 36.5657 20.9932 34.4188 20.9932C32.2719 20.9932 30.5254 22.74 30.5254 24.8869Z" fill="white"/>
<path d="M8.38086 19.0696H17.201C17.8483 19.0696 18.3729 18.5447 18.3729 17.8978V14.8857C18.3729 11.8077 15.869 9.30371 12.791 9.30371C9.71295 9.30371 7.20898 11.8077 7.20898 14.8857V17.8978C7.20898 18.5447 7.73358 19.0696 8.38086 19.0696Z" fill="white"/>
<path d="M12.7919 8.56842C14.9391 8.56842 16.6856 6.82159 16.6856 4.67468C16.6856 2.52777 14.9391 0.78125 12.7919 0.78125C10.645 0.78125 8.89844 2.52777 8.89844 4.67499C8.89844 6.8219 10.645 8.56842 12.7919 8.56842Z" fill="white"/>
<path d="M22.7988 19.0696H31.619C32.2663 19.0696 32.7909 18.5447 32.7909 17.8978V14.8857C32.7909 11.8077 30.2869 9.30371 27.2089 9.30371C24.1309 9.30371 21.627 11.8077 21.627 14.8857V17.8978C21.627 18.5447 22.1519 19.0696 22.7988 19.0696Z" fill="white"/>
<path d="M27.2098 8.56842C29.3568 8.56842 31.1036 6.82159 31.1036 4.67468C31.1036 2.52777 29.3568 0.78125 27.2098 0.78125C25.0629 0.78125 23.3164 2.52777 23.3164 4.67499C23.3164 6.8219 25.0629 8.56842 27.2098 8.56842Z" fill="white"/>
</svg>
