<svg width="42" height="42" viewBox="0 0 42 42" fill="none" xmlns="http://www.w3.org/2000/svg">
<path d="M10.6836 11.3423L7.04489 11.6234C6.03238 11.7017 5.13062 12.2323 4.57068 13.0793L0.374244 19.4261C-0.0504283 20.0684 -0.117939 20.8723 0.193531 21.5764C0.505083 22.2806 1.14533 22.7713 1.90616 22.8891L5.23784 23.4051C6.01721 19.2691 7.88291 15.1433 10.6836 11.3423Z" fill="white"/>
<path d="M18.5957 36.7622L19.1118 40.0938C19.2296 40.8547 19.7203 41.4949 20.4244 41.8064C20.7173 41.936 21.0274 42 21.3359 42C21.7693 42 22.1996 41.8737 22.5748 41.6257L28.9218 37.4293C29.7688 36.8693 30.2994 35.9675 30.3775 34.9551L30.6586 31.3164C26.8575 34.1172 22.7318 35.9829 18.5957 36.7622Z" fill="white"/>
<path d="M17.3416 34.4529C17.4572 34.4529 17.5736 34.4434 17.6896 34.424C19.4224 34.1343 21.0926 33.6462 22.6858 33.0073L8.99242 19.314C8.35357 20.9071 7.86548 22.5772 7.57575 24.3101C7.46157 24.9932 7.69068 25.6891 8.18032 26.1788L15.821 33.8194C16.2275 34.2259 16.7762 34.4529 17.3416 34.4529Z" fill="white"/>
<path d="M38.6504 18.6212C42.0013 12.1429 42.1254 5.29696 41.9502 2.08628C41.8903 0.986171 41.0132 0.109101 39.913 0.0491363C39.3902 0.0205897 38.7707 0 38.0723 0C34.4822 0 28.8015 0.543781 23.3781 3.34898C19.0681 5.57832 13.4164 10.4871 10.082 16.9382C10.1214 16.9689 10.1599 17.0016 10.1961 17.0378L24.9616 31.8033C24.9979 31.8396 25.0305 31.878 25.0612 31.9173C31.5123 28.5829 36.4211 22.9312 38.6504 18.6212ZM24.4197 8.87899C26.8184 6.48033 30.7215 6.48009 33.1203 8.87899C34.2824 10.0409 34.9223 11.586 34.9223 13.2293C34.9223 14.8726 34.2824 16.4177 33.1203 17.5796C31.9211 18.7788 30.3453 19.3786 28.7701 19.3787C27.1943 19.3788 25.6193 18.7792 24.4197 17.5796C23.2577 16.4177 22.6177 14.8726 22.6177 13.2293C22.6177 11.586 23.2577 10.0409 24.4197 8.87899Z" fill="white"/>
<path d="M26.1613 15.8394C27.6005 17.2786 29.9425 17.2787 31.3817 15.8394C32.0789 15.1421 32.4629 14.2152 32.4629 13.2292C32.4629 12.2431 32.0789 11.3162 31.3817 10.619C30.6621 9.89934 29.7168 9.53955 28.7715 9.53955C27.8262 9.53955 26.8809 9.89934 26.1613 10.619C25.4641 11.3162 25.0801 12.2431 25.0801 13.2292C25.0801 14.2152 25.4641 15.1422 26.1613 15.8394Z" fill="white"/>
<path d="M1.2559 34.6121C1.57082 34.6121 1.88574 34.492 2.12592 34.2516L6.14324 30.2343C6.62378 29.7538 6.62378 28.9747 6.14324 28.4942C5.66278 28.0137 4.88365 28.0137 4.40311 28.4942L0.385795 32.5115C-0.0947441 32.992 -0.0947441 33.7711 0.385795 34.2516C0.626064 34.4919 0.940982 34.6121 1.2559 34.6121Z" fill="white"/>
<path d="M9.82418 32.1758C9.34372 31.6953 8.56459 31.6953 8.08405 32.1758L0.360404 39.8995C-0.120135 40.38 -0.120135 41.1591 0.360404 41.6396C0.600673 41.8799 0.915591 42 1.23051 42C1.54543 42 1.86034 41.8799 2.10053 41.6395L9.8241 33.916C10.3047 33.4354 10.3047 32.6564 9.82418 32.1758Z" fill="white"/>
<path d="M11.7663 35.8575L7.74908 39.8748C7.26854 40.3553 7.26854 41.1344 7.74908 41.6149C7.98935 41.8552 8.30426 41.9754 8.6191 41.9754C8.93393 41.9754 9.24893 41.8553 9.48912 41.6149L13.5064 37.5976C13.987 37.1171 13.987 36.338 13.5064 35.8575C13.026 35.3769 12.2468 35.3769 11.7663 35.8575Z" fill="white"/>
</svg>
