<svg width="52" height="37" viewBox="0 0 52 37" fill="none" xmlns="http://www.w3.org/2000/svg">
<path d="M41.1731 0.27795L38.567 2.83581C38.567 2.83581 37.6947 2.63919 37.0887 2.34426L33.0053 0.357492C32.5092 0.116185 31.8979 0 31.275 0C30.3786 0 29.4554 0.241307 28.8083 0.698898L22.4923 5.12823C21.3948 5.90489 21.1517 7.42334 21.9525 8.50386L22.327 9.00971C22.8409 9.70146 23.681 10.0795 24.5211 10.0795C24.9939 10.0795 25.4657 9.96064 25.8804 9.7104L28.8771 7.79781C29.4071 7.47875 30.0801 7.32145 30.7602 7.32145C31.5583 7.32145 32.3654 7.53863 32.9561 7.96315L37.3059 11.9483C38.398 12.7339 40.0961 14.1272 41.0828 15.0415L45.0331 18.713L51.9997 10.6408L41.1731 0.27795Z" fill="white"/>
<path d="M43.817 21.6739L37.2061 15.5295C36.6314 15.0629 35.3507 14.0825 35.3507 14.0825L31.2073 10.2877C31.1197 10.2547 30.9589 10.2162 30.7605 10.2162C30.554 10.2162 30.4173 10.2582 30.3824 10.2734L27.3777 12.1887C26.5251 12.7035 25.5375 12.9743 24.5231 12.9743C22.7347 12.9743 21.0447 12.1369 20.0026 10.7319L19.629 10.2288C18.7728 9.07405 18.4261 7.65928 18.6531 6.2436C18.8792 4.82883 19.6505 3.5919 20.832 2.75716L21.5121 2.2808C20.5308 2.16104 19.4422 2.2656 18.6459 2.60611C18.6459 2.60611 17.3116 3.1924 16.8835 3.37383C15.8914 3.79478 14.5008 3.78852 14.5008 3.78852L11.2369 0.748047L0 11.9099L4.22556 16.1596L5.18543 15.1541C6.18641 14.104 7.59583 13.5007 9.05172 13.5007C10.4325 13.5007 11.7418 14.0244 12.7384 14.9745L13.1933 15.4079C13.7787 15.9665 14.2103 16.6243 14.4865 17.3339C15.3597 17.5582 16.164 18.0015 16.8325 18.6388L17.2848 19.0713C18.3161 20.0527 18.9042 21.379 18.9391 22.8071C19.2519 23.0002 19.5486 23.2281 19.8194 23.4873L20.277 23.9234C20.9178 24.5347 21.3736 25.2676 21.6417 26.0532C22.4514 26.2891 23.1977 26.7154 23.8197 27.308L24.2827 27.7477C26.1434 29.5226 26.4393 32.3298 25.1344 34.4328L25.4812 34.7563C26.4661 35.6724 28.0212 35.6161 28.9372 34.6312L29.3653 34.1691C30.2618 33.2039 30.2171 31.6989 29.2876 30.7792L32.4577 33.7196C33.4443 34.6339 34.9994 34.5767 35.9155 33.59L36.3436 33.1297C37.2534 32.1502 37.1998 30.6085 36.231 29.6907L37.0461 30.4485C38.0319 31.3637 39.5861 31.3056 40.5012 30.3207L40.9302 29.8596C41.8454 28.8729 41.7873 27.3178 40.8024 26.4017L40.1143 25.7636C41.1036 26.6269 42.6158 26.5608 43.514 25.5929L43.9448 25.1308C44.86 24.1433 44.8037 22.5882 43.817 21.6739Z" fill="white"/>
<path d="M22.2837 29.8419L21.8261 29.4066C21.3543 28.9571 20.7465 28.7336 20.1388 28.7336C19.4935 28.7336 18.8482 28.9866 18.3692 29.4888L18.3611 29.4754C19.2879 28.5022 19.2513 26.9462 18.278 26.0185L17.8213 25.5832C17.3512 25.1364 16.7497 24.9147 16.1456 24.9147C15.5352 24.9147 14.9265 25.1408 14.4546 25.5868L15.3707 24.6269C16.2993 23.6537 16.2636 22.0968 15.2885 21.1691L14.8327 20.7339C14.3626 20.2852 13.7566 20.0636 13.1516 20.0636C12.5233 20.0636 11.8968 20.3022 11.4213 20.775C12.1855 19.799 12.1095 18.378 11.1943 17.5048L10.7394 17.0704C10.2675 16.6209 9.65798 16.3975 9.05114 16.3975C8.40408 16.3966 7.7597 16.6504 7.28066 17.1527L2.68777 21.9681C1.76007 22.9405 1.79672 24.4974 2.77267 25.4242L3.22669 25.8585C3.6959 26.3054 4.29827 26.5243 4.89976 26.5243C5.45476 26.5243 6.00888 26.3376 6.45932 25.9693L5.2492 27.2366C4.3224 28.2108 4.35905 29.7659 5.33143 30.6945L5.78991 31.1297C6.2618 31.5793 6.87043 31.8027 7.47638 31.8027C8.12345 31.8027 8.76783 31.5498 9.24687 31.0475L10.1915 30.0564C9.35054 31.0332 9.40684 32.5177 10.3497 33.4159L10.8082 33.8512C11.2792 34.2998 11.8878 34.5232 12.4956 34.5232C13.1418 34.5232 13.787 34.2703 14.2652 33.768L15.7836 32.1969C14.855 33.171 14.8908 34.7261 15.8658 35.6547L16.3234 36.0899C16.7935 36.5395 17.4013 36.7629 18.009 36.7629C18.6552 36.7629 19.3005 36.51 19.7786 36.0077L22.366 33.2961C23.2945 32.3256 23.2561 30.7705 22.2837 29.8419Z" fill="white"/>
</svg>
