<svg width="40" height="45" viewBox="0 0 40 45" fill="none" xmlns="http://www.w3.org/2000/svg">
<path d="M7.95748 29.6536L11.9702 21.4411L3.03819 13.5474C-3.58343 23.7344 1.1387 38.0829 12.1668 42.5173L11.0283 33.6769L7.95748 29.6536Z" fill="white"/>
<path d="M21.6404 24.4765L24.9069 18.998C21.5661 15.3725 18.4523 10.4086 18.6174 7.43601C18.6173 6.31283 18.7871 5.23078 19.1144 4.21533C13.3583 4.44913 8.23093 7.12301 4.73828 11.2293L15.4996 20.7386L11.3056 29.3214L13.7695 32.5506L15.1819 43.5172C21.9613 45.2799 29.7019 42.9089 34.2693 38.0139L27.6304 36.029L21.6404 24.4765Z" fill="white"/>
<path d="M37.1803 14.1182C36.52 15.1402 35.7298 16.2147 34.8118 17.3398C31.493 21.2704 30.6973 21.7995 29.151 23.2783C28.2 22.3889 28.2234 22.4562 26.9429 21.1703L24.9141 24.5742L29.612 33.6341L36.2509 35.6189C40.6565 29.6878 41.0802 20.4536 37.1803 14.1182Z" fill="white"/>
<path d="M29.152 9.27619C30.0156 9.28306 30.76 8.56105 30.7552 7.67301C30.6668 5.54631 27.6366 5.54669 27.5489 7.67301C27.544 8.53643 28.2599 9.27953 29.152 9.27619Z" fill="white"/>
<path d="M29.1518 19.3299C31.7387 16.7144 36.7092 11.2284 36.8242 7.43585C36.8242 2.78185 32.9231 0.000137208 29.1518 0.000137208C25.1977 -0.0518708 21.3809 3.14514 21.4796 7.43595C21.2948 10.4383 26.3271 16.6335 29.1518 19.3299ZM24.7994 6.67148C26.1006 1.55771 33.4746 2.34432 33.6178 7.67261C33.6182 10.1345 31.6147 12.1385 29.1518 12.1386C26.3242 12.1754 24.1342 9.41292 24.7994 6.67148Z" fill="white"/>
</svg>
