<svg width="27" height="27" viewBox="0 0 27 27" fill="none" xmlns="http://www.w3.org/2000/svg">
<path d="M11.0866 15.6851C8.53147 13.13 7.95454 10.5749 7.82438 9.55115C7.78801 9.26809 7.88542 8.98422 8.08792 8.78313L10.1557 6.71631C10.4598 6.41233 10.5138 5.93858 10.2858 5.57397L6.99359 0.461843C6.74136 0.0581013 6.22346 -0.087613 5.79771 0.125373L0.512503 2.61451C0.168214 2.78404 -0.0342924 3.14984 0.00479781 3.53161C0.281728 6.16245 1.42868 12.6297 7.78422 18.9857C14.1398 25.3417 20.6061 26.4882 23.2383 26.7651C23.6201 26.8042 23.9859 26.6017 24.1554 26.2574L26.6445 20.9722C26.8567 20.5474 26.712 20.0309 26.3099 19.7782L21.1978 16.4869C20.8334 16.2586 20.3597 16.3122 20.0555 16.6161L17.9886 18.6838C17.7875 18.8863 17.5037 18.9838 17.2206 18.9474C16.1969 18.8172 13.6418 18.2403 11.0866 15.6851Z" fill="white"/>
<path d="M21.2323 14.3083C20.7225 14.3083 20.3092 13.895 20.3092 13.3852C20.3049 9.56336 17.2078 6.46625 13.386 6.46192C12.8762 6.46192 12.4629 6.04864 12.4629 5.53882C12.4629 5.02901 12.8762 4.61572 13.386 4.61572C18.227 4.62106 22.1501 8.54415 22.1554 13.3852C22.1554 13.895 21.7422 14.3083 21.2323 14.3083Z" fill="#D060AC"/>
<path d="M21.2323 14.3083C20.7225 14.3083 20.3092 13.895 20.3092 13.3852C20.3049 9.56336 17.2078 6.46625 13.386 6.46192C12.8762 6.46192 12.4629 6.04864 12.4629 5.53882C12.4629 5.02901 12.8762 4.61572 13.386 4.61572C18.227 4.62106 22.1501 8.54415 22.1554 13.3852C22.1554 13.895 21.7422 14.3083 21.2323 14.3083Z" fill="url(#paint0_linear)"/>
<path d="M25.8478 14.3081C25.338 14.3081 24.9247 13.8948 24.9247 13.385C24.9176 7.01523 19.7557 1.85332 13.386 1.8462C12.8762 1.8462 12.4629 1.43291 12.4629 0.9231C12.4629 0.413286 12.8762 0 13.386 0C20.7749 0.00813984 26.7628 5.99602 26.7709 13.385C26.7709 13.6298 26.6737 13.8646 26.5006 14.0377C26.3275 14.2108 26.0927 14.3081 25.8478 14.3081Z" fill="#D060AC"/>
<path d="M25.8478 14.3081C25.338 14.3081 24.9247 13.8948 24.9247 13.385C24.9176 7.01523 19.7557 1.85332 13.386 1.8462C12.8762 1.8462 12.4629 1.43291 12.4629 0.9231C12.4629 0.413286 12.8762 0 13.386 0C20.7749 0.00813984 26.7628 5.99602 26.7709 13.385C26.7709 13.6298 26.6737 13.8646 26.5006 14.0377C26.3275 14.2108 26.0927 14.3081 25.8478 14.3081Z" fill="url(#paint1_linear)"/>
<defs>
<linearGradient id="paint0_linear" x1="12.4629" y1="4.61572" x2="23.351" y2="6.22639" gradientUnits="userSpaceOnUse">
<stop stop-color="#AD33F6"/>
<stop offset="0.50689" stop-color="#D363A5"/>
<stop offset="1" stop-color="#E39469"/>
</linearGradient>
<linearGradient id="paint1_linear" x1="12.4629" y1="0" x2="28.5358" y2="2.37765" gradientUnits="userSpaceOnUse">
<stop stop-color="#AD33F6"/>
<stop offset="0.50689" stop-color="#D363A5"/>
<stop offset="1" stop-color="#E39469"/>
</linearGradient>
</defs>
</svg>
