<svg width="144" height="61" viewBox="0 0 144 61" fill="none" xmlns="http://www.w3.org/2000/svg">
<path d="M3.41815 24V1.73543H12.5148C15.1442 1.73543 17.2222 2.44578 18.7489 3.86647C20.2756 5.28716 21.039 7.16375 21.039 9.49622C21.039 11.9771 20.1908 13.9067 18.4944 15.285C16.7981 16.6421 14.6458 17.3206 12.0377 17.3206H8.31635V24H3.41815ZM8.31635 12.9631H12.1967C13.4054 12.9631 14.349 12.6451 15.0275 12.0089C15.7273 11.3728 16.0771 10.5458 16.0771 9.52803C16.0771 8.44661 15.7273 7.61964 15.0275 7.04712C14.3278 6.4534 13.3524 6.15654 12.1013 6.15654H8.31635V12.9631ZM20.5191 24L30.0611 1.5764H34.5776L44.1196 24H38.9987L36.9631 19.0064H27.5484L25.5127 24H20.5191ZM29.2977 14.6807H35.2137L32.2557 7.46061L29.2977 14.6807ZM47.5559 24V1.73543H52.4541V19.5471H63.5546V24H47.5559ZM67.4713 24V1.73543H72.3695V24H67.4713ZM83.1181 24V6.25196H76.3433V1.73543H94.7911V6.25196H88.0163V24H83.1181ZM98.5582 24V1.73543H108.736C111.556 1.73543 113.719 2.48819 115.225 3.9937C116.497 5.26596 117.133 6.98351 117.133 9.14635C117.133 12.5603 115.543 14.8609 112.362 16.0484L117.801 24H112.076L107.241 16.8753H103.456V24H98.5582ZM103.456 12.5497H108.418C109.606 12.5497 110.528 12.2634 111.185 11.6909C111.843 11.0972 112.171 10.3126 112.171 9.33719C112.171 8.29818 111.832 7.51362 111.154 6.98351C110.475 6.4322 109.531 6.15654 108.323 6.15654H103.456V12.5497ZM119.635 24L129.177 1.5764H133.693L143.235 24H138.115L136.079 19.0064H126.664L124.629 24H119.635ZM128.414 14.6807H134.33L131.372 7.46061L128.414 14.6807ZM57.1821 54V36.252H50.4073V31.7354H68.8551V36.252H62.0803V54H57.1821ZM72.6222 54V31.7354H89.416V36.0929H77.4886V40.6095H87.9847V44.9669H77.4886V49.6425H89.5751V54H72.6222ZM92.0217 54L101.564 31.5764H106.08L115.622 54H110.501L108.466 49.0064H99.0509L97.0153 54H92.0217ZM100.8 44.6807H106.716L103.758 37.4606L100.8 44.6807ZM119.058 54V31.7354H124.338L130.191 41.1502L136.043 31.7354H141.323V54H136.457V39.4644L130.191 48.9746H130.064L123.861 39.5598V54H119.058Z" fill="black"/>
<rect y="37.5652" width="34.882" height="13.4161" fill="url(#paint0_linear)"/>
<defs>
<linearGradient id="paint0_linear" x1="0" y1="37.5652" x2="34.882" y2="50.9813" gradientUnits="userSpaceOnUse">
<stop stop-color="#AD33F6"/>
<stop offset="0.50689" stop-color="#D363A5"/>
<stop offset="1" stop-color="#E39469"/>
</linearGradient>
</defs>
</svg>
