<svg width="87" height="87" viewBox="0 0 87 87" fill="none" xmlns="http://www.w3.org/2000/svg">
<g clip-path="url(#clip0)">
<path d="M45.3351 41.7475C45.3209 41.7325 45.3168 41.7127 45.3022 41.6981L30.7562 27.1519V18.012C30.7562 17.3348 30.4874 16.6878 30.0095 16.2098L14.7166 0.747051C13.9898 0.0204653 12.8921 -0.201113 11.9387 0.194635C10.9854 0.587834 10.3655 1.51884 10.3655 2.54924V10.1957H2.54914C1.5189 10.1956 0.5879 10.8153 0.194701 11.7687C-0.201047 12.722 0.017982 13.8173 0.747287 14.5466L16.2102 30.0093C16.6882 30.4873 17.3352 30.7561 18.0122 30.7561H27.1521L41.6981 45.3021C41.7127 45.3167 41.7326 45.3208 41.7476 45.3351C42.7399 46.2822 44.2473 46.2948 45.2529 45.3351C46.3118 44.3244 46.288 42.7458 45.3351 41.7475Z" fill="white"/>
<path d="M43.4997 0.000488281C36.9779 0.000488281 30.8116 1.65978 25.2589 4.25159L33.0777 12.0704C36.3592 10.9791 39.8567 10.3657 43.4998 10.3657C61.7697 10.3656 76.6343 25.2303 76.6343 43.5001C76.6343 61.77 61.7697 76.6347 43.4997 76.6347C25.2297 76.6347 10.3651 61.7701 10.3651 43.5001C10.3651 39.857 10.9787 36.3595 12.0697 33.078L4.25094 25.2592C1.65946 30.8121 0 36.9784 0 43.5001C0 67.3927 19.6071 87 43.4997 87C67.3922 87 86.9995 67.3927 86.9995 43.5001C86.9995 19.6076 67.3925 0.000488281 43.4997 0.000488281Z" fill="white"/>
<path d="M43.4998 20.5605C40.8057 20.5605 38.2569 21.1128 35.8533 21.9697V25.0409L41.7457 30.9333C42.3245 30.8524 42.8992 30.7559 43.4998 30.7559C50.5266 30.7559 56.244 36.4732 56.244 43.5C56.244 50.5268 50.5266 56.2441 43.4998 56.2441C36.4731 56.2441 30.7557 50.5268 30.7557 43.5C30.7557 42.8992 30.8522 42.3245 30.9331 41.7459L25.0409 35.8533H21.9697C21.1128 38.2569 20.5605 40.8057 20.5605 43.4998C20.5605 56.1493 30.8505 66.4391 43.4998 66.4391C56.1492 66.4391 66.4393 56.1493 66.4393 43.4998C66.4393 30.8503 56.1493 20.5605 43.4998 20.5605Z" fill="white"/>
</g>
<defs>
<clipPath id="clip0">
<rect width="87" height="87" fill="white"/>
</clipPath>
</defs>
</svg>
