<svg width="87" height="87" viewBox="0 0 87 87" fill="none" xmlns="http://www.w3.org/2000/svg">
<g clip-path="url(#clip0)">
<path d="M33.2647 32.2054L46.0588 19.4112L63.9706 37.323V5.11816H0V34.7642L17.9118 16.8524L33.2647 32.2054ZM30.7059 15.3535H35.8235V20.4711H30.7059V15.3535Z" fill="white"/>
<path d="M17.9118 24.0894L0 42.0011V49.8118H43.6343L17.9118 24.0894Z" fill="white"/>
<path d="M36.8828 35.8236L50.871 49.8119H63.97V44.56L46.0582 26.6482L36.8828 35.8236Z" fill="white"/>
<path d="M69.0879 5.11768H86.9996V12.7941H69.0879V5.11768Z" fill="white"/>
<path d="M69.0879 17.9119H86.9996V25.5883H69.0879V17.9119Z" fill="white"/>
<path d="M69.0879 30.7061H86.9996V38.3825H69.0879V30.7061Z" fill="white"/>
<path d="M69.0879 43.5H86.9996V51.1765H69.0879V43.5Z" fill="white"/>
<path d="M0 66.5295H34.8322L31.4205 76.7648H25.5882V81.8824H61.4118V76.7648H55.5795L52.1678 66.5295H87V56.2942H0V66.5295Z" fill="white"/>
</g>
<defs>
<clipPath id="clip0">
<rect width="87" height="87" fill="white"/>
</clipPath>
</defs>
</svg>
