<svg width="87" height="87" viewBox="0 0 87 87" fill="none" xmlns="http://www.w3.org/2000/svg">
<g clip-path="url(#clip0)">
<path d="M84.5592 14.5435C86.1257 12.9423 86.9927 10.827 87.0002 8.58704C87.0076 6.34713 86.1551 4.226 84.5993 2.61429C82.9917 0.949053 80.8318 0.0207695 78.5173 0.00054884C76.2047 -0.0186523 74.027 0.870209 72.3904 2.5069L68 6.89734L80.1312 19.0532L84.5592 14.5435Z" fill="white"/>
<path d="M82.667 54.9679V36.3652L75.4163 34.9577C74.786 32.9696 73.9799 31.0401 73.0076 29.1933L77.1608 23.0528L64.0201 9.8852L57.7383 14.1154C55.9232 13.1888 54.0321 12.4216 52.089 11.8233L50.6349 4.33301H32.0321L30.5348 12.0468C28.7284 12.6449 26.9692 13.3905 25.2781 14.275L18.7198 9.83933L5.55254 22.9801L10.0042 29.591C9.13398 31.2813 8.40213 33.0406 7.8176 34.8477L0 36.3652V54.9679L7.82745 56.4873C8.04563 57.1447 8.29661 57.8404 8.56865 58.5473C9.43117 58.1631 10.3302 57.8564 11.2531 57.6322L17.6676 51.2177C17.2523 49.4135 17.0403 47.561 17.0403 45.6735C17.0403 32.0869 28.0939 21.0334 41.6805 21.0334C55.2671 21.0334 66.3205 32.0869 66.3205 45.6735C66.3205 59.2601 55.2671 70.3137 41.6805 70.3137C39.6795 70.3137 37.7196 70.0763 35.8156 69.6102L29.4298 75.9959C29.1965 76.8842 28.9074 77.7387 28.5623 78.5557C29.234 78.8193 29.8979 79.0633 30.5329 79.2781L32.0321 87H50.6349L52.0889 79.5095C54.0085 78.9183 55.8774 78.1622 57.6728 77.2502L63.9469 81.4937L77.1145 68.3529L72.9735 62.2035C73.961 60.3371 74.7787 58.386 75.4161 56.3753L82.667 54.9679Z" fill="white"/>
<path d="M41.6812 26.1313C30.9055 26.1313 22.1387 34.898 22.1387 45.6737C22.1387 46.0236 22.1499 46.3716 22.1682 46.7181L42.7269 26.1594C42.3806 26.1412 42.0319 26.1313 41.6812 26.1313Z" fill="white"/>
<path d="M41.68 65.2162C52.4556 65.2162 61.2223 56.4496 61.2223 45.6738C61.2223 45.1967 61.2043 44.7238 61.1705 44.2551L40.2637 65.1618C40.7328 65.1953 41.2045 65.2162 41.68 65.2162Z" fill="white"/>
<path d="M33.9121 41.9417L45.4641 52.9924L59.8859 38.5706C57.8631 33.4038 53.7014 29.3017 48.4957 27.3582L33.9121 41.9417Z" fill="white"/>
<path d="M29.1289 69.3272L41.8581 56.5978L30.3063 45.5471L17.6523 58.201L29.1289 69.3272Z" fill="white"/>
<path d="M7.19398 65.4499C5.37038 67.4155 4.43292 69.9742 4.55425 72.6547C4.6511 74.7927 4.28628 76.8284 3.4958 78.7159C2.24484 81.7033 0 83.5328 0 83.5328C0 83.5328 3.38043 84.7722 8.91563 84.7722C12.3051 84.7722 16.6201 84.1817 19.9811 81.7428C22.7354 79.7442 24.4171 76.8606 24.9921 73.1654L13.5394 62.2095C11.1059 62.5299 8.8373 63.6786 7.19398 65.4499Z" fill="white"/>
</g>
<defs>
<clipPath id="clip0">
<rect width="87" height="87" fill="white"/>
</clipPath>
</defs>
</svg>
