<svg width="87" height="87" viewBox="0 0 87 87" fill="none" xmlns="http://www.w3.org/2000/svg">
<path d="M2.54876 24.6387H16.4243C17.8318 24.6387 18.973 23.4975 18.973 22.09V20.4132C18.973 19.1641 18.728 17.9717 18.2874 16.8784C15.9977 19.0688 12.8978 20.4186 9.48667 20.4186C6.07558 20.4186 2.97548 19.0688 0.685774 16.8784C0.245019 17.9716 0 19.1639 0 20.413V22.0898C0 23.4975 1.14119 24.6387 2.54876 24.6387Z" fill="white"/>
<path d="M9.48629 15.3207C13.7093 15.3207 17.1327 11.8973 17.1327 7.67428C17.1327 3.45126 13.7093 0.027832 9.48629 0.027832C5.26327 0.027832 1.83984 3.45126 1.83984 7.67428C1.83984 11.8973 5.26327 15.3207 9.48629 15.3207Z" fill="white"/>
<path d="M77.5139 72.4147C74.1026 72.4147 71.0027 71.0649 68.713 68.8745C68.2722 69.9678 68.0273 71.1602 68.0273 72.4093V74.0861C68.0273 75.4936 69.1685 76.6348 70.5761 76.6348H84.4516C85.8592 76.6348 87.0004 75.4936 87.0004 74.0861V72.4093C87.0004 71.1602 86.7553 69.9678 86.3147 68.8745C84.025 71.0649 80.9249 72.4147 77.5139 72.4147Z" fill="white"/>
<path d="M85.1601 59.6704C85.1601 55.454 81.7298 52.0239 77.5136 52.0239C73.2975 52.0239 69.8672 55.4542 69.8672 59.6704C69.8672 63.8865 73.2975 67.3168 77.5136 67.3168C81.7298 67.3168 85.1601 63.8867 85.1601 59.6704Z" fill="white"/>
<path d="M60.3222 51.9961H5.09768C2.28674 51.9961 0 54.283 0 57.0938V81.9023C0 84.7131 2.28674 87 5.09768 87H49.6171C52.4279 87 54.7148 84.7133 54.7148 81.9023V64.6092L62.2192 56.2472C62.8909 55.4986 63.0597 54.4248 62.6498 53.5061C62.2399 52.5878 61.3282 51.9961 60.3222 51.9961ZM17.1621 72.0467C15.7583 72.0467 14.6134 70.9017 14.6134 69.4979C14.6134 68.0941 15.7583 66.9491 17.1621 66.9491C18.566 66.9491 19.7109 68.0941 19.7109 69.4979C19.7109 70.9017 18.5658 72.0467 17.1621 72.0467ZM27.3575 72.0467C25.9537 72.0467 24.8087 70.9017 24.8087 69.4979C24.8087 68.0941 25.9537 66.9491 27.3575 66.9491C28.7613 66.9491 29.9063 68.0941 29.9063 69.4979C29.9063 70.9017 28.7613 72.0467 27.3575 72.0467ZM37.5527 72.0467C36.1489 72.0467 35.0039 70.9017 35.0039 69.4979C35.0039 68.0941 36.1489 66.9491 37.5527 66.9491C38.9565 66.9491 40.1015 68.0941 40.1015 69.4979C40.1015 70.9017 38.9567 72.0467 37.5527 72.0467Z" fill="white"/>
<path d="M81.9023 0H26.6777C25.6718 0 24.76 0.591727 24.3501 1.5102C23.9403 2.42867 24.109 3.50248 24.7809 4.25127L32.2851 12.6131V30.5864C32.2851 33.3972 34.5719 35.6841 37.3828 35.6841H81.9023C84.713 35.6841 86.9999 33.3974 86.9999 30.5864V5.09768C86.9999 2.28674 84.7132 0 81.9023 0ZM58.2832 25.4883H45.0293C43.6217 25.4883 42.4805 24.3471 42.4805 22.9395C42.4805 21.5319 43.6217 20.3907 45.0293 20.3907H58.2832C59.6908 20.3907 60.832 21.5319 60.832 22.9395C60.832 24.3471 59.6908 25.4883 58.2832 25.4883ZM74.2541 15.2929H45.0293C43.6217 15.2929 42.4805 14.1517 42.4805 12.7441C42.4805 11.3366 43.6217 10.1954 45.0293 10.1954H74.2541C75.6617 10.1954 76.8029 11.3366 76.8029 12.7441C76.8029 14.1517 75.6617 15.2929 74.2541 15.2929Z" fill="white"/>
</svg>
