<svg width="27" height="46" viewBox="0 0 27 46" fill="none" xmlns="http://www.w3.org/2000/svg">
<path d="M26.2669 21.2051L5.81496 0.734872C5.34193 0.261039 4.71048 0 4.03718 0C3.36388 0 2.73243 0.261039 2.2594 0.734872L0.753259 2.24201C-0.226799 3.22409 -0.226799 4.82024 0.753259 5.80081L17.9273 22.9905L0.734203 40.1992C0.261175 40.673 0 41.3047 0 41.9782C0 42.6525 0.261175 43.2842 0.734203 43.7584L2.24035 45.2651C2.71375 45.739 3.34483 46 4.01813 46C4.69143 46 5.32288 45.739 5.79591 45.2651L26.2669 24.7762C26.7411 24.3009 27.0015 23.6662 27 22.9916C27.0015 22.3143 26.7411 21.68 26.2669 21.2051Z" fill="white"/>
</svg>
