<svg width="28" height="29" viewBox="0 0 28 29" fill="none" xmlns="http://www.w3.org/2000/svg">
<path d="M23.9972 0.975586H4.68317C2.47691 0.975586 0.681641 2.77086 0.681641 4.97711V24.2912C0.681641 26.4974 2.47691 28.2927 4.68317 28.2927H23.9972C26.2035 28.2927 27.9987 26.4974 27.9987 24.2912V4.97711C27.9987 2.77086 26.2035 0.975586 23.9972 0.975586ZM14.3935 21.7835C10.4218 21.7835 7.19079 18.5525 7.19079 14.5808C7.19079 10.6091 10.4218 7.37803 14.3935 7.37803C18.3653 7.37803 21.5963 10.6091 21.5963 14.5808C21.5963 18.5525 18.3653 21.7835 14.3935 21.7835ZM22.3966 8.97864C21.0728 8.97864 19.9957 7.90157 19.9957 6.57773C19.9957 5.25389 21.0728 4.17681 22.3966 4.17681C23.7204 4.17681 24.7975 5.25389 24.7975 6.57773C24.7975 7.90157 23.7204 8.97864 22.3966 8.97864Z" fill="white"/>
<path d="M22.396 5.77734C21.9544 5.77734 21.5957 6.13602 21.5957 6.57765C21.5957 7.01928 21.9544 7.37796 22.396 7.37796C22.8376 7.37796 23.1963 7.01928 23.1963 6.57765C23.1963 6.13602 22.8376 5.77734 22.396 5.77734Z" fill="white"/>
<path d="M14.3932 8.979C11.3045 8.979 8.79102 11.4925 8.79102 14.5811C8.79102 17.6698 11.3045 20.1833 14.3932 20.1833C17.4818 20.1833 19.9953 17.6698 19.9953 14.5811C19.9953 11.4925 17.4818 8.979 14.3932 8.979Z" fill="white"/>
</svg>
